<svg width="21" height="30" viewBox="0 0 21 30" fill="none" xmlns="http://www.w3.org/2000/svg">
<path d="M14.3571 5.4C14.3571 3.24609 12.6302 1.5 10.5 1.5C8.36976 1.5 6.64286 3.24609 6.64286 5.4V14.5C6.64286 16.6539 8.36976 18.4 10.5 18.4C12.6302 18.4 14.3571 16.6539 14.3571 14.5V5.4Z" fill="#8D8D8D"/>
<path d="M10.5 23.6V27.5M10.5 23.6C12.8869 23.6 15.1761 22.6413 16.864 20.9347C18.5518 19.2281 19.5 16.9135 19.5 14.5V11.9M10.5 23.6C8.11305 23.6 5.82387 22.6413 4.13604 20.9347C2.44821 19.2281 1.5 16.9135 1.5 14.5V11.9M10.5 1.5C12.6302 1.5 14.3571 3.24609 14.3571 5.4V14.5C14.3571 16.6539 12.6302 18.4 10.5 18.4C8.36976 18.4 6.64286 16.6539 6.64286 14.5V5.4C6.64286 3.24609 8.36976 1.5 10.5 1.5Z" stroke="#8D8D8D" stroke-width="3" stroke-linecap="round" stroke-linejoin="round"/>
<path d="M4.5 28H16.5" stroke="#8D8D8D" stroke-width="3" stroke-linecap="round"/>
</svg>
