<svg width="31" height="35" viewBox="0 0 31 35" fill="none" xmlns="http://www.w3.org/2000/svg">
<path d="M1.5 5.05637C1.49982 4.4308 1.66212 3.81626 1.97051 3.27479C2.2789 2.73332 2.72247 2.2841 3.25643 1.97248C3.79038 1.66087 4.39582 1.4979 5.01161 1.50002C5.6274 1.50214 6.23173 1.66929 6.76359 1.98458L27.7567 14.4246C28.2865 14.7369 28.7264 15.185 29.0323 15.7241C29.3382 16.2632 29.4995 16.8744 29.5 17.4967C29.5005 18.1189 29.3403 18.7304 29.0353 19.2701C28.7303 19.8097 28.2912 20.2586 27.762 20.5718L6.76359 33.0154C6.23173 33.3307 5.6274 33.4979 5.01161 33.5C4.39582 33.5021 3.79038 33.3391 3.25643 33.0275C2.72247 32.7159 2.2789 32.2667 1.97051 31.7252C1.66212 31.1837 1.49982 30.5692 1.5 29.9436V5.05637Z" stroke="white" stroke-width="3" stroke-linecap="round" stroke-linejoin="round"/>
</svg>
