<svg width="39" height="39" viewBox="0 0 39 39" fill="none" xmlns="http://www.w3.org/2000/svg">
<mask id="mask0_11_180" style="mask-type:luminance" maskUnits="userSpaceOnUse" x="0" y="0" width="38" height="38">
<path d="M37.8004 0H0V37.0767H37.8004V0Z" fill="white"/>
</mask>
<g mask="url(#mask0_11_180)">
<path d="M18.5479 37.0576C19.2524 37.0576 19.8237 36.5434 19.938 35.7817C21.5758 23.0991 23.3657 21.2901 35.7626 19.9189C36.5434 19.8428 37.0956 19.2715 37.0956 18.5288C37.0956 17.7861 36.5434 17.2148 35.7626 17.1196C23.3657 15.7676 21.5758 13.9585 19.938 1.25684C19.8237 0.495117 19.2524 0 18.5479 0C17.8433 0 17.272 0.495117 17.1577 1.25684C15.52 13.9585 13.73 15.7676 1.33301 17.1196C0.552246 17.2148 0 17.7861 0 18.5288C0 19.2715 0.552246 19.8428 1.33301 19.9189C13.73 21.5567 15.4058 23.1182 17.1577 35.7817C17.272 36.5434 17.8433 37.0576 18.5479 37.0576Z" fill="white"/>
</g>
</svg>
